<?xml version="1.0" encoding="UTF-8" standalone="no"?>
<!DOCTYPE svg PUBLIC "-//W3C//DTD SVG 1.1//EN" "http://www.w3.org/Graphics/SVG/1.1/DTD/svg11.dtd">
<svg width="100%" height="100%" viewBox="0 0 264 60" version="1.1" xmlns="http://www.w3.org/2000/svg" xmlns:xlink="http://www.w3.org/1999/xlink" xml:space="preserve" xmlns:serif="http://www.serif.com/" style="fill-rule:evenodd;clip-rule:evenodd;stroke-linejoin:round;stroke-miterlimit:2;">
    <g transform="matrix(1,0,0,1,-234.761,-270.052)">
        <g transform="matrix(1,0,0,1,0,-10.6312)">
            <g transform="matrix(0.994239,0,0,0.994239,2.04295,4.60216)">
                <g transform="matrix(24,0,0,24,290,332.391)">
                    <path d="M0.139,0C0.128,0 0.118,-0.004 0.111,-0.011C0.104,-0.018 0.1,-0.028 0.1,-0.039L0.1,-0.742C0.1,-0.753 0.104,-0.763 0.111,-0.77C0.118,-0.777 0.128,-0.781 0.139,-0.781C0.15,-0.781 0.16,-0.777 0.167,-0.77C0.174,-0.763 0.178,-0.753 0.178,-0.742L0.178,-0.039C0.178,-0.028 0.174,-0.018 0.167,-0.011C0.16,-0.004 0.15,0 0.139,0Z" style="fill-rule:nonzero;"/>
                </g>
                <g transform="matrix(24,0,0,24,296.672,332.391)">
                    <path d="M0.559,0C0.548,0 0.538,-0.004 0.531,-0.011C0.524,-0.018 0.52,-0.027 0.52,-0.038L0.52,-0.298C0.52,-0.339 0.512,-0.373 0.497,-0.4C0.481,-0.427 0.46,-0.447 0.433,-0.46C0.406,-0.473 0.375,-0.48 0.341,-0.48C0.308,-0.48 0.279,-0.474 0.253,-0.461C0.226,-0.448 0.205,-0.431 0.19,-0.409C0.175,-0.387 0.167,-0.362 0.167,-0.334L0.112,-0.334C0.113,-0.376 0.125,-0.413 0.146,-0.447C0.167,-0.48 0.196,-0.505 0.231,-0.525C0.266,-0.544 0.306,-0.553 0.349,-0.553C0.396,-0.553 0.439,-0.543 0.476,-0.524C0.513,-0.504 0.543,-0.475 0.565,-0.437C0.586,-0.399 0.597,-0.353 0.597,-0.298L0.597,-0.038C0.597,-0.027 0.593,-0.018 0.586,-0.011C0.579,-0.004 0.57,0 0.559,0ZM0.129,0C0.117,0 0.108,-0.004 0.101,-0.011C0.094,-0.018 0.09,-0.027 0.09,-0.038L0.09,-0.508C0.09,-0.52 0.094,-0.53 0.101,-0.537C0.108,-0.544 0.117,-0.547 0.129,-0.547C0.14,-0.547 0.15,-0.544 0.157,-0.537C0.164,-0.53 0.167,-0.52 0.167,-0.508L0.167,-0.038C0.167,-0.027 0.164,-0.018 0.157,-0.011C0.15,-0.004 0.14,0 0.129,0Z" style="fill-rule:nonzero;"/>
                </g>
                <g transform="matrix(24,0,0,24,312.92,332.391)">
                    <path d="M0.304,0C0.269,0 0.237,-0.008 0.21,-0.025C0.182,-0.042 0.16,-0.065 0.144,-0.094C0.128,-0.123 0.12,-0.156 0.12,-0.193L0.12,-0.682C0.12,-0.693 0.124,-0.703 0.131,-0.71C0.138,-0.717 0.147,-0.721 0.158,-0.721C0.169,-0.721 0.179,-0.717 0.186,-0.71C0.193,-0.703 0.197,-0.693 0.197,-0.682L0.197,-0.193C0.197,-0.159 0.207,-0.131 0.227,-0.11C0.247,-0.088 0.273,-0.077 0.304,-0.077L0.331,-0.077C0.342,-0.077 0.35,-0.073 0.357,-0.066C0.364,-0.059 0.367,-0.049 0.367,-0.038C0.367,-0.027 0.363,-0.018 0.355,-0.011C0.347,-0.004 0.337,0 0.325,0L0.304,0ZM0.055,-0.46C0.045,-0.46 0.037,-0.463 0.03,-0.469C0.023,-0.476 0.02,-0.484 0.02,-0.493C0.02,-0.503 0.023,-0.511 0.03,-0.518C0.037,-0.524 0.045,-0.527 0.055,-0.527L0.31,-0.527C0.32,-0.527 0.328,-0.524 0.335,-0.518C0.342,-0.511 0.345,-0.503 0.345,-0.493C0.345,-0.484 0.342,-0.476 0.335,-0.469C0.328,-0.463 0.32,-0.46 0.31,-0.46L0.055,-0.46Z" style="fill-rule:nonzero;"/>
                </g>
                <g transform="matrix(24,0,0,24,322.568,332.391)">
                    <path d="M0.338,0.005C0.284,0.005 0.236,-0.007 0.195,-0.031C0.153,-0.054 0.12,-0.087 0.097,-0.129C0.073,-0.171 0.061,-0.219 0.061,-0.273C0.061,-0.328 0.072,-0.376 0.095,-0.418C0.117,-0.459 0.148,-0.492 0.187,-0.516C0.226,-0.54 0.272,-0.552 0.323,-0.552C0.374,-0.552 0.418,-0.541 0.456,-0.518C0.493,-0.495 0.522,-0.463 0.543,-0.422C0.564,-0.381 0.574,-0.335 0.574,-0.283C0.574,-0.272 0.571,-0.264 0.564,-0.258C0.557,-0.251 0.549,-0.248 0.538,-0.248L0.113,-0.248L0.113,-0.312L0.546,-0.312L0.503,-0.281C0.504,-0.32 0.497,-0.354 0.482,-0.385C0.467,-0.416 0.447,-0.44 0.42,-0.457C0.393,-0.474 0.36,-0.483 0.323,-0.483C0.285,-0.483 0.252,-0.474 0.223,-0.456C0.194,-0.438 0.172,-0.413 0.157,-0.382C0.141,-0.35 0.133,-0.314 0.133,-0.273C0.133,-0.232 0.142,-0.196 0.16,-0.165C0.177,-0.134 0.201,-0.109 0.232,-0.091C0.263,-0.073 0.298,-0.064 0.338,-0.064C0.362,-0.064 0.386,-0.068 0.41,-0.077C0.435,-0.085 0.454,-0.095 0.469,-0.108C0.476,-0.114 0.485,-0.117 0.494,-0.117C0.503,-0.118 0.511,-0.115 0.518,-0.11C0.527,-0.102 0.531,-0.093 0.532,-0.084C0.532,-0.075 0.528,-0.067 0.52,-0.06C0.498,-0.041 0.47,-0.026 0.436,-0.014C0.402,-0.001 0.369,0.005 0.338,0.005Z" style="fill-rule:nonzero;"/>
                </g>
                <g transform="matrix(24,0,0,24,337.304,332.391)">
                    <path d="M0.122,-0.337C0.124,-0.378 0.135,-0.415 0.155,-0.448C0.174,-0.481 0.2,-0.506 0.232,-0.525C0.263,-0.544 0.298,-0.553 0.337,-0.553C0.368,-0.553 0.391,-0.549 0.408,-0.54C0.425,-0.531 0.431,-0.519 0.427,-0.502C0.424,-0.492 0.42,-0.485 0.413,-0.482C0.407,-0.479 0.4,-0.477 0.391,-0.478C0.382,-0.479 0.371,-0.479 0.36,-0.48C0.323,-0.483 0.29,-0.48 0.261,-0.469C0.232,-0.458 0.209,-0.441 0.192,-0.418C0.174,-0.395 0.166,-0.368 0.166,-0.337L0.122,-0.337ZM0.128,0C0.116,0 0.107,-0.003 0.1,-0.01C0.093,-0.017 0.09,-0.026 0.09,-0.038L0.09,-0.509C0.09,-0.521 0.093,-0.53 0.1,-0.537C0.107,-0.544 0.116,-0.547 0.128,-0.547C0.14,-0.547 0.149,-0.544 0.156,-0.537C0.163,-0.53 0.166,-0.521 0.166,-0.509L0.166,-0.038C0.166,-0.026 0.163,-0.017 0.156,-0.01C0.149,-0.003 0.14,0 0.128,0Z" style="fill-rule:nonzero;"/>
                </g>
                <g transform="matrix(24,0,0,24,348.296,332.391)">
                    <path d="M0.145,0C0.133,0 0.124,-0.004 0.117,-0.011C0.11,-0.018 0.106,-0.027 0.106,-0.039L0.106,-0.508C0.106,-0.52 0.11,-0.53 0.117,-0.537C0.124,-0.544 0.133,-0.547 0.145,-0.547C0.156,-0.547 0.166,-0.544 0.172,-0.537C0.18,-0.53 0.183,-0.52 0.183,-0.508L0.183,-0.039C0.183,-0.027 0.18,-0.018 0.172,-0.011C0.166,-0.004 0.156,0 0.145,0ZM0.144,-0.651C0.129,-0.651 0.117,-0.656 0.106,-0.667C0.095,-0.678 0.09,-0.691 0.09,-0.706C0.09,-0.723 0.096,-0.736 0.107,-0.746C0.117,-0.755 0.13,-0.76 0.145,-0.76C0.159,-0.76 0.172,-0.755 0.183,-0.746C0.194,-0.736 0.199,-0.723 0.199,-0.706C0.199,-0.691 0.194,-0.678 0.183,-0.667C0.172,-0.656 0.159,-0.651 0.144,-0.651Z" style="fill-rule:nonzero;"/>
                </g>
                <g transform="matrix(24,0,0,24,355.232,332.391)">
                    <path d="M0.339,0.005C0.286,0.005 0.238,-0.007 0.196,-0.031C0.154,-0.055 0.121,-0.088 0.097,-0.13C0.073,-0.172 0.061,-0.22 0.061,-0.273C0.061,-0.327 0.073,-0.375 0.097,-0.417C0.121,-0.459 0.154,-0.492 0.196,-0.516C0.238,-0.54 0.286,-0.552 0.339,-0.552C0.392,-0.552 0.44,-0.54 0.482,-0.516C0.523,-0.492 0.556,-0.459 0.58,-0.417C0.604,-0.375 0.616,-0.327 0.617,-0.273C0.617,-0.22 0.605,-0.172 0.581,-0.13C0.556,-0.088 0.523,-0.055 0.482,-0.031C0.44,-0.007 0.392,0.005 0.339,0.005ZM0.339,-0.065C0.378,-0.065 0.412,-0.074 0.443,-0.092C0.474,-0.11 0.498,-0.135 0.515,-0.166C0.532,-0.197 0.541,-0.233 0.541,-0.273C0.541,-0.313 0.532,-0.349 0.515,-0.381C0.498,-0.412 0.474,-0.437 0.443,-0.455C0.412,-0.473 0.378,-0.482 0.339,-0.482C0.3,-0.482 0.266,-0.473 0.235,-0.455C0.204,-0.437 0.18,-0.412 0.163,-0.381C0.145,-0.349 0.136,-0.313 0.136,-0.273C0.136,-0.233 0.145,-0.197 0.163,-0.166C0.18,-0.135 0.204,-0.11 0.235,-0.092C0.266,-0.074 0.3,-0.065 0.339,-0.065Z" style="fill-rule:nonzero;"/>
                </g>
                <g transform="matrix(24,0,0,24,371.48,332.391)">
                    <path d="M0.122,-0.337C0.124,-0.378 0.135,-0.415 0.155,-0.448C0.174,-0.481 0.2,-0.506 0.232,-0.525C0.263,-0.544 0.298,-0.553 0.337,-0.553C0.368,-0.553 0.391,-0.549 0.408,-0.54C0.425,-0.531 0.431,-0.519 0.427,-0.502C0.424,-0.492 0.42,-0.485 0.413,-0.482C0.407,-0.479 0.4,-0.477 0.391,-0.478C0.382,-0.479 0.371,-0.479 0.36,-0.48C0.323,-0.483 0.29,-0.48 0.261,-0.469C0.232,-0.458 0.209,-0.441 0.192,-0.418C0.174,-0.395 0.166,-0.368 0.166,-0.337L0.122,-0.337ZM0.128,0C0.116,0 0.107,-0.003 0.1,-0.01C0.093,-0.017 0.09,-0.026 0.09,-0.038L0.09,-0.509C0.09,-0.521 0.093,-0.53 0.1,-0.537C0.107,-0.544 0.116,-0.547 0.128,-0.547C0.14,-0.547 0.149,-0.544 0.156,-0.537C0.163,-0.53 0.166,-0.521 0.166,-0.509L0.166,-0.038C0.166,-0.026 0.163,-0.017 0.156,-0.01C0.149,-0.003 0.14,0 0.128,0Z" style="fill-rule:nonzero;"/>
                </g>
                <g transform="matrix(24,0,0,24,389.504,332.391)">
                    <path d="M0.339,0.005C0.286,0.005 0.239,-0.007 0.197,-0.032C0.155,-0.056 0.122,-0.089 0.098,-0.131C0.073,-0.173 0.061,-0.221 0.061,-0.274C0.061,-0.327 0.073,-0.374 0.097,-0.416C0.12,-0.458 0.152,-0.491 0.193,-0.516C0.234,-0.54 0.28,-0.552 0.331,-0.552C0.376,-0.552 0.416,-0.543 0.452,-0.524C0.488,-0.504 0.517,-0.479 0.539,-0.448L0.539,-0.742C0.539,-0.754 0.543,-0.763 0.55,-0.771C0.557,-0.778 0.567,-0.781 0.578,-0.781C0.589,-0.781 0.599,-0.778 0.606,-0.771C0.613,-0.763 0.617,-0.754 0.617,-0.742L0.617,-0.27C0.616,-0.218 0.603,-0.171 0.579,-0.13C0.554,-0.088 0.521,-0.055 0.48,-0.031C0.438,-0.007 0.391,0.005 0.339,0.005ZM0.339,-0.065C0.378,-0.065 0.412,-0.074 0.443,-0.093C0.473,-0.111 0.497,-0.136 0.515,-0.167C0.532,-0.198 0.541,-0.234 0.541,-0.274C0.541,-0.313 0.532,-0.349 0.515,-0.381C0.497,-0.412 0.473,-0.437 0.443,-0.455C0.412,-0.473 0.378,-0.482 0.339,-0.482C0.301,-0.482 0.267,-0.473 0.236,-0.455C0.205,-0.437 0.181,-0.412 0.163,-0.381C0.145,-0.349 0.136,-0.313 0.136,-0.274C0.136,-0.234 0.145,-0.198 0.163,-0.167C0.181,-0.136 0.205,-0.111 0.236,-0.093C0.267,-0.074 0.301,-0.065 0.339,-0.065Z" style="fill-rule:nonzero;"/>
                </g>
                <g transform="matrix(24,0,0,24,406.472,332.391)">
                    <path d="M0.338,0.005C0.284,0.005 0.236,-0.007 0.195,-0.031C0.153,-0.054 0.12,-0.087 0.097,-0.129C0.073,-0.171 0.061,-0.219 0.061,-0.273C0.061,-0.328 0.072,-0.376 0.095,-0.418C0.117,-0.459 0.148,-0.492 0.187,-0.516C0.226,-0.54 0.272,-0.552 0.323,-0.552C0.374,-0.552 0.418,-0.541 0.456,-0.518C0.493,-0.495 0.522,-0.463 0.543,-0.422C0.564,-0.381 0.574,-0.335 0.574,-0.283C0.574,-0.272 0.571,-0.264 0.564,-0.258C0.557,-0.251 0.549,-0.248 0.538,-0.248L0.113,-0.248L0.113,-0.312L0.546,-0.312L0.503,-0.281C0.504,-0.32 0.497,-0.354 0.482,-0.385C0.467,-0.416 0.447,-0.44 0.42,-0.457C0.393,-0.474 0.36,-0.483 0.323,-0.483C0.285,-0.483 0.252,-0.474 0.223,-0.456C0.194,-0.438 0.172,-0.413 0.157,-0.382C0.141,-0.35 0.133,-0.314 0.133,-0.273C0.133,-0.232 0.142,-0.196 0.16,-0.165C0.177,-0.134 0.201,-0.109 0.232,-0.091C0.263,-0.073 0.298,-0.064 0.338,-0.064C0.362,-0.064 0.386,-0.068 0.41,-0.077C0.435,-0.085 0.454,-0.095 0.469,-0.108C0.476,-0.114 0.485,-0.117 0.494,-0.117C0.503,-0.118 0.511,-0.115 0.518,-0.11C0.527,-0.102 0.531,-0.093 0.532,-0.084C0.532,-0.075 0.528,-0.067 0.52,-0.06C0.498,-0.041 0.47,-0.026 0.436,-0.014C0.402,-0.001 0.369,0.005 0.338,0.005Z" style="fill-rule:nonzero;"/>
                </g>
                <g transform="matrix(24,0,0,24,421.208,332.391)">
                    <path d="M0.281,0.005C0.242,0.005 0.203,-0.002 0.164,-0.015C0.125,-0.028 0.094,-0.048 0.07,-0.075C0.063,-0.083 0.06,-0.092 0.061,-0.102C0.062,-0.112 0.067,-0.121 0.076,-0.128C0.085,-0.135 0.095,-0.137 0.105,-0.136C0.115,-0.135 0.123,-0.13 0.13,-0.123C0.146,-0.104 0.167,-0.09 0.194,-0.08C0.22,-0.07 0.249,-0.065 0.281,-0.065C0.33,-0.065 0.366,-0.074 0.388,-0.091C0.41,-0.108 0.421,-0.128 0.422,-0.152C0.422,-0.176 0.411,-0.196 0.388,-0.212C0.365,-0.227 0.328,-0.239 0.276,-0.248C0.209,-0.259 0.159,-0.277 0.128,-0.304C0.097,-0.331 0.081,-0.362 0.081,-0.399C0.081,-0.433 0.09,-0.461 0.108,-0.484C0.126,-0.507 0.15,-0.524 0.18,-0.535C0.21,-0.546 0.243,-0.552 0.279,-0.552C0.324,-0.552 0.362,-0.544 0.395,-0.529C0.427,-0.514 0.453,-0.493 0.473,-0.467C0.48,-0.458 0.482,-0.449 0.481,-0.44C0.48,-0.431 0.474,-0.423 0.465,-0.417C0.457,-0.412 0.448,-0.411 0.438,-0.412C0.427,-0.414 0.418,-0.419 0.411,-0.427C0.394,-0.446 0.375,-0.461 0.353,-0.469C0.331,-0.478 0.306,-0.483 0.277,-0.483C0.24,-0.483 0.211,-0.475 0.189,-0.461C0.167,-0.446 0.156,-0.427 0.156,-0.404C0.156,-0.389 0.16,-0.375 0.169,-0.364C0.177,-0.353 0.191,-0.343 0.212,-0.334C0.232,-0.325 0.26,-0.318 0.297,-0.312C0.347,-0.304 0.387,-0.292 0.416,-0.277C0.445,-0.261 0.465,-0.243 0.477,-0.222C0.49,-0.201 0.496,-0.178 0.496,-0.153C0.496,-0.122 0.487,-0.094 0.469,-0.07C0.45,-0.047 0.425,-0.028 0.393,-0.015C0.36,-0.002 0.323,0.005 0.281,0.005Z" style="fill-rule:nonzero;"/>
                </g>
                <g transform="matrix(24,0,0,24,434.144,332.391)">
                    <path d="M0.145,0C0.133,0 0.124,-0.004 0.117,-0.011C0.11,-0.018 0.106,-0.027 0.106,-0.039L0.106,-0.508C0.106,-0.52 0.11,-0.53 0.117,-0.537C0.124,-0.544 0.133,-0.547 0.145,-0.547C0.156,-0.547 0.166,-0.544 0.172,-0.537C0.18,-0.53 0.183,-0.52 0.183,-0.508L0.183,-0.039C0.183,-0.027 0.18,-0.018 0.172,-0.011C0.166,-0.004 0.156,0 0.145,0ZM0.144,-0.651C0.129,-0.651 0.117,-0.656 0.106,-0.667C0.095,-0.678 0.09,-0.691 0.09,-0.706C0.09,-0.723 0.096,-0.736 0.107,-0.746C0.117,-0.755 0.13,-0.76 0.145,-0.76C0.159,-0.76 0.172,-0.755 0.183,-0.746C0.194,-0.736 0.199,-0.723 0.199,-0.706C0.199,-0.691 0.194,-0.678 0.183,-0.667C0.172,-0.656 0.159,-0.651 0.144,-0.651Z" style="fill-rule:nonzero;"/>
                </g>
                <g transform="matrix(24,0,0,24,441.08,332.391)">
                    <path d="M0.331,0.005C0.278,0.005 0.232,-0.007 0.191,-0.031C0.15,-0.054 0.118,-0.087 0.096,-0.129C0.073,-0.171 0.061,-0.219 0.061,-0.273C0.061,-0.328 0.073,-0.376 0.097,-0.418C0.121,-0.46 0.154,-0.493 0.196,-0.517C0.238,-0.54 0.286,-0.552 0.339,-0.552C0.393,-0.552 0.441,-0.54 0.483,-0.517C0.524,-0.493 0.557,-0.46 0.581,-0.418C0.604,-0.376 0.616,-0.328 0.617,-0.273L0.572,-0.249C0.572,-0.2 0.562,-0.156 0.541,-0.117C0.52,-0.079 0.492,-0.049 0.456,-0.028C0.419,-0.006 0.378,0.005 0.331,0.005ZM0.341,0.216C0.288,0.216 0.242,0.206 0.202,0.186C0.162,0.167 0.129,0.14 0.103,0.106C0.096,0.098 0.093,0.089 0.094,0.08C0.095,0.071 0.099,0.063 0.108,0.057C0.117,0.051 0.126,0.049 0.137,0.051C0.148,0.053 0.156,0.058 0.162,0.066C0.181,0.09 0.206,0.109 0.236,0.124C0.267,0.139 0.302,0.146 0.342,0.146C0.379,0.146 0.413,0.137 0.443,0.119C0.473,0.101 0.497,0.076 0.515,0.043C0.532,0.01 0.541,-0.028 0.541,-0.072L0.541,-0.224L0.57,-0.282L0.617,-0.273L0.617,-0.069C0.617,-0.015 0.605,0.033 0.581,0.076C0.557,0.119 0.524,0.153 0.483,0.178C0.442,0.203 0.394,0.216 0.341,0.216ZM0.339,-0.065C0.378,-0.065 0.413,-0.074 0.444,-0.092C0.474,-0.109 0.498,-0.134 0.515,-0.165C0.532,-0.196 0.541,-0.232 0.541,-0.273C0.541,-0.314 0.532,-0.35 0.515,-0.382C0.498,-0.413 0.474,-0.438 0.444,-0.456C0.413,-0.473 0.378,-0.482 0.339,-0.482C0.3,-0.482 0.265,-0.473 0.234,-0.456C0.203,-0.438 0.179,-0.413 0.162,-0.382C0.145,-0.35 0.136,-0.314 0.136,-0.273C0.136,-0.232 0.145,-0.196 0.162,-0.165C0.179,-0.134 0.203,-0.109 0.234,-0.092C0.265,-0.074 0.3,-0.065 0.339,-0.065Z" style="fill-rule:nonzero;"/>
                </g>
                <g transform="matrix(24,0,0,24,457.328,332.391)">
                    <path d="M0.559,0C0.548,0 0.538,-0.004 0.531,-0.011C0.524,-0.018 0.52,-0.027 0.52,-0.038L0.52,-0.298C0.52,-0.339 0.512,-0.373 0.497,-0.4C0.481,-0.427 0.46,-0.447 0.433,-0.46C0.406,-0.473 0.375,-0.48 0.341,-0.48C0.308,-0.48 0.279,-0.474 0.253,-0.461C0.226,-0.448 0.205,-0.431 0.19,-0.409C0.175,-0.387 0.167,-0.362 0.167,-0.334L0.112,-0.334C0.113,-0.376 0.125,-0.413 0.146,-0.447C0.167,-0.48 0.196,-0.505 0.231,-0.525C0.266,-0.544 0.306,-0.553 0.349,-0.553C0.396,-0.553 0.439,-0.543 0.476,-0.524C0.513,-0.504 0.543,-0.475 0.565,-0.437C0.586,-0.399 0.597,-0.353 0.597,-0.298L0.597,-0.038C0.597,-0.027 0.593,-0.018 0.586,-0.011C0.579,-0.004 0.57,0 0.559,0ZM0.129,0C0.117,0 0.108,-0.004 0.101,-0.011C0.094,-0.018 0.09,-0.027 0.09,-0.038L0.09,-0.508C0.09,-0.52 0.094,-0.53 0.101,-0.537C0.108,-0.544 0.117,-0.547 0.129,-0.547C0.14,-0.547 0.15,-0.544 0.157,-0.537C0.164,-0.53 0.167,-0.52 0.167,-0.508L0.167,-0.038C0.167,-0.027 0.164,-0.018 0.157,-0.011C0.15,-0.004 0.14,0 0.129,0Z" style="fill-rule:nonzero;"/>
                </g>
                <g transform="matrix(24,0,0,24,473.576,332.391)">
                    <path d="M0.338,0.005C0.284,0.005 0.236,-0.007 0.195,-0.031C0.153,-0.054 0.12,-0.087 0.097,-0.129C0.073,-0.171 0.061,-0.219 0.061,-0.273C0.061,-0.328 0.072,-0.376 0.095,-0.418C0.117,-0.459 0.148,-0.492 0.187,-0.516C0.226,-0.54 0.272,-0.552 0.323,-0.552C0.374,-0.552 0.418,-0.541 0.456,-0.518C0.493,-0.495 0.522,-0.463 0.543,-0.422C0.564,-0.381 0.574,-0.335 0.574,-0.283C0.574,-0.272 0.571,-0.264 0.564,-0.258C0.557,-0.251 0.549,-0.248 0.538,-0.248L0.113,-0.248L0.113,-0.312L0.546,-0.312L0.503,-0.281C0.504,-0.32 0.497,-0.354 0.482,-0.385C0.467,-0.416 0.447,-0.44 0.42,-0.457C0.393,-0.474 0.36,-0.483 0.323,-0.483C0.285,-0.483 0.252,-0.474 0.223,-0.456C0.194,-0.438 0.172,-0.413 0.157,-0.382C0.141,-0.35 0.133,-0.314 0.133,-0.273C0.133,-0.232 0.142,-0.196 0.16,-0.165C0.177,-0.134 0.201,-0.109 0.232,-0.091C0.263,-0.073 0.298,-0.064 0.338,-0.064C0.362,-0.064 0.386,-0.068 0.41,-0.077C0.435,-0.085 0.454,-0.095 0.469,-0.108C0.476,-0.114 0.485,-0.117 0.494,-0.117C0.503,-0.118 0.511,-0.115 0.518,-0.11C0.527,-0.102 0.531,-0.093 0.532,-0.084C0.532,-0.075 0.528,-0.067 0.52,-0.06C0.498,-0.041 0.47,-0.026 0.436,-0.014C0.402,-0.001 0.369,0.005 0.338,0.005Z" style="fill-rule:nonzero;"/>
                </g>
                <g transform="matrix(24,0,0,24,488.312,332.391)">
                    <path d="M0.122,-0.337C0.124,-0.378 0.135,-0.415 0.155,-0.448C0.174,-0.481 0.2,-0.506 0.232,-0.525C0.263,-0.544 0.298,-0.553 0.337,-0.553C0.368,-0.553 0.391,-0.549 0.408,-0.54C0.425,-0.531 0.431,-0.519 0.427,-0.502C0.424,-0.492 0.42,-0.485 0.413,-0.482C0.407,-0.479 0.4,-0.477 0.391,-0.478C0.382,-0.479 0.371,-0.479 0.36,-0.48C0.323,-0.483 0.29,-0.48 0.261,-0.469C0.232,-0.458 0.209,-0.441 0.192,-0.418C0.174,-0.395 0.166,-0.368 0.166,-0.337L0.122,-0.337ZM0.128,0C0.116,0 0.107,-0.003 0.1,-0.01C0.093,-0.017 0.09,-0.026 0.09,-0.038L0.09,-0.509C0.09,-0.521 0.093,-0.53 0.1,-0.537C0.107,-0.544 0.116,-0.547 0.128,-0.547C0.14,-0.547 0.149,-0.544 0.156,-0.537C0.163,-0.53 0.166,-0.521 0.166,-0.509L0.166,-0.038C0.166,-0.026 0.163,-0.017 0.156,-0.01C0.149,-0.003 0.14,0 0.128,0Z" style="fill-rule:nonzero;"/>
                </g>
            </g>
            <g transform="matrix(1.00053,0,0,1.00053,-2.94596,42.2079)">
                <g transform="matrix(30,0,0,30,292.791,262.396)">
                    <path d="M0.152,0C0.138,0 0.126,-0.005 0.116,-0.015C0.105,-0.025 0.1,-0.037 0.1,-0.052L0.1,-0.729C0.1,-0.744 0.105,-0.756 0.116,-0.766C0.126,-0.776 0.138,-0.781 0.152,-0.781C0.167,-0.781 0.179,-0.776 0.189,-0.766C0.199,-0.756 0.204,-0.744 0.204,-0.729L0.204,-0.429L0.535,-0.76C0.543,-0.768 0.55,-0.774 0.557,-0.777C0.564,-0.78 0.571,-0.781 0.578,-0.781C0.595,-0.781 0.607,-0.776 0.614,-0.766C0.621,-0.756 0.624,-0.744 0.622,-0.731C0.62,-0.717 0.614,-0.704 0.603,-0.693L0.348,-0.437L0.608,-0.083C0.616,-0.072 0.619,-0.059 0.618,-0.047C0.617,-0.034 0.612,-0.023 0.604,-0.014C0.596,-0.005 0.585,0 0.572,0C0.553,0 0.539,-0.007 0.529,-0.022L0.276,-0.365L0.204,-0.293L0.204,-0.052C0.204,-0.037 0.199,-0.025 0.189,-0.015C0.179,-0.005 0.167,0 0.152,0Z" style="fill-rule:nonzero;"/>
                </g>
                <g transform="matrix(30,0,0,30,312.801,262.396)">
                    <path d="M0.152,0C0.137,0 0.125,-0.005 0.115,-0.015C0.105,-0.025 0.1,-0.037 0.1,-0.052L0.1,-0.729C0.1,-0.744 0.105,-0.757 0.115,-0.767C0.125,-0.776 0.137,-0.781 0.152,-0.781C0.167,-0.781 0.18,-0.776 0.19,-0.767C0.199,-0.757 0.204,-0.744 0.204,-0.729L0.204,-0.052C0.204,-0.037 0.199,-0.025 0.19,-0.015C0.18,-0.005 0.167,0 0.152,0Z" style="fill-rule:nonzero;"/>
                </g>
                <g transform="matrix(30,0,0,30,321.921,262.396)">
                    <path d="M0.348,0.01C0.305,0.01 0.265,0.003 0.226,-0.01C0.187,-0.023 0.154,-0.042 0.125,-0.066C0.096,-0.09 0.075,-0.118 0.062,-0.149C0.055,-0.163 0.056,-0.176 0.063,-0.188C0.07,-0.2 0.081,-0.208 0.098,-0.211C0.11,-0.214 0.122,-0.212 0.134,-0.205C0.145,-0.199 0.154,-0.19 0.16,-0.177C0.168,-0.16 0.181,-0.145 0.2,-0.131C0.218,-0.117 0.24,-0.106 0.266,-0.097C0.292,-0.088 0.319,-0.084 0.348,-0.084C0.38,-0.084 0.409,-0.089 0.437,-0.099C0.464,-0.109 0.485,-0.124 0.502,-0.142C0.519,-0.162 0.527,-0.185 0.527,-0.213C0.527,-0.248 0.513,-0.28 0.486,-0.308C0.458,-0.336 0.412,-0.353 0.349,-0.36C0.266,-0.368 0.201,-0.392 0.154,-0.433C0.107,-0.474 0.083,-0.524 0.083,-0.584C0.083,-0.628 0.095,-0.665 0.12,-0.696C0.145,-0.727 0.178,-0.75 0.221,-0.766C0.263,-0.782 0.31,-0.79 0.362,-0.79C0.403,-0.79 0.438,-0.784 0.469,-0.773C0.499,-0.762 0.525,-0.746 0.548,-0.726C0.571,-0.706 0.59,-0.682 0.607,-0.655C0.616,-0.64 0.62,-0.626 0.619,-0.614C0.617,-0.601 0.61,-0.59 0.599,-0.583C0.586,-0.575 0.573,-0.573 0.558,-0.578C0.543,-0.583 0.532,-0.591 0.525,-0.604C0.514,-0.623 0.501,-0.64 0.486,-0.653C0.471,-0.666 0.453,-0.677 0.432,-0.685C0.411,-0.692 0.387,-0.696 0.359,-0.696C0.31,-0.697 0.268,-0.688 0.235,-0.669C0.202,-0.65 0.185,-0.62 0.185,-0.581C0.185,-0.561 0.19,-0.542 0.201,-0.524C0.211,-0.505 0.23,-0.489 0.258,-0.476C0.285,-0.463 0.325,-0.453 0.377,-0.448C0.456,-0.44 0.518,-0.416 0.563,-0.376C0.607,-0.335 0.629,-0.282 0.629,-0.216C0.629,-0.178 0.621,-0.145 0.606,-0.117C0.59,-0.089 0.569,-0.066 0.543,-0.047C0.516,-0.028 0.486,-0.013 0.453,-0.004C0.419,0.005 0.384,0.01 0.348,0.01Z" style="fill-rule:nonzero;"/>
                </g>
                <g transform="matrix(30,0,0,30,342.561,262.396)">
                    <path d="M0.348,0.01C0.305,0.01 0.265,0.003 0.226,-0.01C0.187,-0.023 0.154,-0.042 0.125,-0.066C0.096,-0.09 0.075,-0.118 0.062,-0.149C0.055,-0.163 0.056,-0.176 0.063,-0.188C0.07,-0.2 0.081,-0.208 0.098,-0.211C0.11,-0.214 0.122,-0.212 0.134,-0.205C0.145,-0.199 0.154,-0.19 0.16,-0.177C0.168,-0.16 0.181,-0.145 0.2,-0.131C0.218,-0.117 0.24,-0.106 0.266,-0.097C0.292,-0.088 0.319,-0.084 0.348,-0.084C0.38,-0.084 0.409,-0.089 0.437,-0.099C0.464,-0.109 0.485,-0.124 0.502,-0.142C0.519,-0.162 0.527,-0.185 0.527,-0.213C0.527,-0.248 0.513,-0.28 0.486,-0.308C0.458,-0.336 0.412,-0.353 0.349,-0.36C0.266,-0.368 0.201,-0.392 0.154,-0.433C0.107,-0.474 0.083,-0.524 0.083,-0.584C0.083,-0.628 0.095,-0.665 0.12,-0.696C0.145,-0.727 0.178,-0.75 0.221,-0.766C0.263,-0.782 0.31,-0.79 0.362,-0.79C0.403,-0.79 0.438,-0.784 0.469,-0.773C0.499,-0.762 0.525,-0.746 0.548,-0.726C0.571,-0.706 0.59,-0.682 0.607,-0.655C0.616,-0.64 0.62,-0.626 0.619,-0.614C0.617,-0.601 0.61,-0.59 0.599,-0.583C0.586,-0.575 0.573,-0.573 0.558,-0.578C0.543,-0.583 0.532,-0.591 0.525,-0.604C0.514,-0.623 0.501,-0.64 0.486,-0.653C0.471,-0.666 0.453,-0.677 0.432,-0.685C0.411,-0.692 0.387,-0.696 0.359,-0.696C0.31,-0.697 0.268,-0.688 0.235,-0.669C0.202,-0.65 0.185,-0.62 0.185,-0.581C0.185,-0.561 0.19,-0.542 0.201,-0.524C0.211,-0.505 0.23,-0.489 0.258,-0.476C0.285,-0.463 0.325,-0.453 0.377,-0.448C0.456,-0.44 0.518,-0.416 0.563,-0.376C0.607,-0.335 0.629,-0.282 0.629,-0.216C0.629,-0.178 0.621,-0.145 0.606,-0.117C0.59,-0.089 0.569,-0.066 0.543,-0.047C0.516,-0.028 0.486,-0.013 0.453,-0.004C0.419,0.005 0.384,0.01 0.348,0.01Z" style="fill-rule:nonzero;"/>
                </g>
                <g transform="matrix(30,0,0,30,371.991,262.396)">
                    <path d="M0.331,0C0.316,0 0.304,-0.005 0.294,-0.015C0.284,-0.025 0.279,-0.037 0.279,-0.052L0.279,-0.781L0.383,-0.781L0.383,-0.052C0.383,-0.037 0.378,-0.025 0.368,-0.015C0.358,-0.005 0.346,0 0.331,0ZM0.063,-0.685C0.049,-0.685 0.038,-0.69 0.029,-0.699C0.02,-0.708 0.015,-0.719 0.015,-0.733C0.015,-0.747 0.02,-0.758 0.029,-0.768C0.038,-0.777 0.049,-0.781 0.063,-0.781L0.598,-0.781C0.612,-0.781 0.624,-0.777 0.632,-0.768C0.642,-0.758 0.646,-0.747 0.646,-0.733C0.646,-0.719 0.642,-0.708 0.632,-0.699C0.624,-0.69 0.612,-0.685 0.598,-0.685L0.063,-0.685Z" style="fill-rule:nonzero;"/>
                </g>
                <g transform="matrix(30,0,0,30,389.421,262.396)">
                    <path d="M0.069,0C0.05,0 0.036,-0.008 0.026,-0.024C0.016,-0.04 0.015,-0.057 0.023,-0.075L0.304,-0.746C0.314,-0.769 0.33,-0.781 0.353,-0.781C0.377,-0.781 0.393,-0.769 0.402,-0.746L0.684,-0.073C0.691,-0.054 0.69,-0.038 0.681,-0.023C0.671,-0.008 0.656,0 0.637,0C0.627,0 0.618,-0.003 0.609,-0.009C0.6,-0.014 0.593,-0.022 0.589,-0.032L0.341,-0.648L0.369,-0.648L0.117,-0.032C0.112,-0.021 0.106,-0.013 0.097,-0.008C0.087,-0.003 0.078,0 0.069,0ZM0.122,-0.172L0.162,-0.258L0.554,-0.258L0.594,-0.172L0.122,-0.172Z" style="fill-rule:nonzero;"/>
                </g>
                <g transform="matrix(30,0,0,30,410.511,262.396)">
                    <path d="M0.152,0C0.137,0 0.125,-0.005 0.115,-0.015C0.105,-0.025 0.1,-0.037 0.1,-0.052L0.1,-0.729C0.1,-0.744 0.105,-0.757 0.115,-0.767C0.125,-0.776 0.137,-0.781 0.152,-0.781C0.172,-0.781 0.187,-0.772 0.198,-0.753L0.511,-0.126L0.479,-0.126L0.784,-0.753C0.795,-0.772 0.81,-0.781 0.83,-0.781C0.845,-0.781 0.857,-0.776 0.867,-0.767C0.877,-0.757 0.882,-0.744 0.882,-0.729L0.882,-0.052C0.882,-0.037 0.877,-0.025 0.867,-0.015C0.856,-0.005 0.844,0 0.83,0C0.815,0 0.803,-0.005 0.793,-0.015C0.783,-0.025 0.778,-0.037 0.778,-0.052L0.778,-0.585L0.798,-0.59L0.536,-0.056C0.525,-0.039 0.51,-0.03 0.491,-0.03C0.469,-0.03 0.453,-0.04 0.443,-0.061L0.184,-0.58L0.204,-0.585L0.204,-0.052C0.204,-0.037 0.199,-0.025 0.189,-0.015C0.179,-0.005 0.167,0 0.152,0Z" style="fill-rule:nonzero;"/>
                </g>
                <g transform="matrix(30,0,0,30,439.971,262.396)">
                    <path d="M0.069,0C0.05,0 0.036,-0.008 0.026,-0.024C0.016,-0.04 0.015,-0.057 0.023,-0.075L0.304,-0.746C0.314,-0.769 0.33,-0.781 0.353,-0.781C0.377,-0.781 0.393,-0.769 0.402,-0.746L0.684,-0.073C0.691,-0.054 0.69,-0.038 0.681,-0.023C0.671,-0.008 0.656,0 0.637,0C0.627,0 0.618,-0.003 0.609,-0.009C0.6,-0.014 0.593,-0.022 0.589,-0.032L0.341,-0.648L0.369,-0.648L0.117,-0.032C0.112,-0.021 0.106,-0.013 0.097,-0.008C0.087,-0.003 0.078,0 0.069,0ZM0.122,-0.172L0.162,-0.258L0.554,-0.258L0.594,-0.172L0.122,-0.172Z" style="fill-rule:nonzero;"/>
                </g>
                <g transform="matrix(30,0,0,30,461.061,262.396)">
                    <path d="M0.152,0C0.137,0 0.125,-0.005 0.115,-0.015C0.105,-0.025 0.1,-0.037 0.1,-0.052L0.1,-0.729C0.1,-0.744 0.105,-0.757 0.115,-0.767C0.125,-0.776 0.137,-0.781 0.152,-0.781L0.332,-0.781C0.382,-0.781 0.426,-0.771 0.465,-0.75C0.504,-0.729 0.534,-0.7 0.556,-0.663C0.577,-0.626 0.588,-0.584 0.588,-0.535C0.588,-0.49 0.577,-0.449 0.556,-0.414C0.534,-0.379 0.504,-0.351 0.465,-0.331C0.426,-0.311 0.382,-0.301 0.332,-0.301L0.204,-0.301L0.204,-0.052C0.204,-0.037 0.199,-0.025 0.19,-0.015C0.18,-0.005 0.167,0 0.152,0ZM0.567,0C0.558,0 0.549,-0.002 0.542,-0.006C0.534,-0.01 0.527,-0.016 0.522,-0.025L0.342,-0.315L0.443,-0.344L0.607,-0.08C0.619,-0.061 0.621,-0.043 0.612,-0.025C0.603,-0.009 0.588,0 0.567,0ZM0.204,-0.397L0.332,-0.397C0.363,-0.397 0.39,-0.403 0.413,-0.414C0.436,-0.426 0.455,-0.443 0.468,-0.464C0.481,-0.485 0.488,-0.508 0.488,-0.535C0.488,-0.564 0.481,-0.59 0.468,-0.613C0.455,-0.636 0.436,-0.653 0.413,-0.666C0.39,-0.679 0.363,-0.685 0.332,-0.685L0.204,-0.685L0.204,-0.397Z" style="fill-rule:nonzero;"/>
                </g>
                <g transform="matrix(30,0,0,30,480.021,262.396)">
                    <path d="M0.069,0C0.05,0 0.036,-0.008 0.026,-0.024C0.016,-0.04 0.015,-0.057 0.023,-0.075L0.304,-0.746C0.314,-0.769 0.33,-0.781 0.353,-0.781C0.377,-0.781 0.393,-0.769 0.402,-0.746L0.684,-0.073C0.691,-0.054 0.69,-0.038 0.681,-0.023C0.671,-0.008 0.656,0 0.637,0C0.627,0 0.618,-0.003 0.609,-0.009C0.6,-0.014 0.593,-0.022 0.589,-0.032L0.341,-0.648L0.369,-0.648L0.117,-0.032C0.112,-0.021 0.106,-0.013 0.097,-0.008C0.087,-0.003 0.078,0 0.069,0ZM0.122,-0.172L0.162,-0.258L0.554,-0.258L0.594,-0.172L0.122,-0.172Z" style="fill-rule:nonzero;"/>
                </g>
            </g>
        </g>
        <path d="M255.811,288.547C255.439,288.547 255.132,288.24 255.132,287.868L255.132,286.754C255.136,283.72 257.445,281.144 260.46,280.809C260.46,280.803 260.515,280.798 260.585,280.793C260.59,280.776 260.583,280.755 260.584,280.736C260.588,280.668 260.593,280.599 260.598,280.53C260.614,280.326 260.635,280.123 260.661,279.92C260.75,279.235 260.9,278.558 261.109,277.9C261.792,275.759 263.112,273.831 264.888,272.45C265.852,271.7 266.944,271.116 268.107,270.742C269.138,270.41 270.221,270.245 271.304,270.252C272.11,270.258 272.916,270.358 273.699,270.553C274.314,270.706 274.915,270.916 275.491,271.18C276.795,271.777 277.969,272.644 278.937,273.701C279.68,274.514 280.302,275.438 280.778,276.431C281.289,277.499 281.632,278.645 281.795,279.817C281.84,280.143 281.871,280.471 281.889,280.799C281.9,281.006 281.904,281.212 281.908,281.418L281.908,323.09L283.941,323.09C284.313,323.09 284.62,323.396 284.62,323.769C284.62,324.141 284.313,324.447 283.941,324.447L277.81,324.447C277.438,324.447 277.131,324.141 277.131,323.769C277.131,323.396 277.438,323.09 277.81,323.09L280.551,323.09L280.551,281.464C280.487,280.203 280.217,278.955 279.739,277.785C278.847,275.597 277.231,273.686 275.136,272.568C274.613,272.289 274.063,272.061 273.494,271.892C272.864,271.706 272.211,271.593 271.554,271.561C270.77,271.523 269.983,271.602 269.221,271.79C268.216,272.037 267.265,272.472 266.4,273.038C265.945,273.336 265.508,273.668 265.108,274.037C264.375,274.714 263.751,275.508 263.232,276.358C262.822,277.031 262.129,278.182 261.836,280.586C261.827,280.661 261.878,280.733 261.926,280.793L261.928,280.795C261.996,280.799 262.053,280.802 262.053,280.809C265.068,281.144 267.377,283.72 267.381,286.754L267.381,287.868C267.381,288.24 267.075,288.547 266.702,288.547L263.652,288.547C263.356,289.625 262.405,290.425 261.283,290.45L261.283,290.45L261.23,290.45L261.23,290.45C260.108,290.425 259.157,289.625 258.861,288.547L255.811,288.547ZM242.723,324.447L240.114,324.447C239.325,324.446 238.676,323.797 238.675,323.008L238.675,310.536C236.468,310.113 234.861,308.127 234.966,305.877C235.074,303.568 236.991,301.675 239.332,301.566C240.037,301.534 240.739,301.661 241.388,301.938L241.388,297.81C241.386,296.582 242.393,295.57 243.62,295.566L264.16,295.566C265.388,295.57 266.395,296.582 266.393,297.81L266.393,301.937C267.041,301.661 267.744,301.534 268.448,301.566C270.789,301.675 272.707,303.568 272.815,305.877C272.92,308.127 271.313,310.113 269.106,310.536L269.106,323.008C269.105,323.797 268.456,324.446 267.666,324.447L265.058,324.447C264.46,324.439 263.916,324.064 263.707,323.501C263.649,323.343 263.621,323.177 263.618,323.009L263.617,320.328L244.164,320.328L244.162,323.009C244.159,323.177 244.132,323.343 244.073,323.501C243.869,324.052 243.343,324.423 242.76,324.447L242.723,324.447ZM265.058,323.09L267.667,323.09C267.712,323.09 267.748,323.053 267.748,323.008L267.748,310.222C267.749,309.723 268.126,309.298 268.622,309.238C270.275,309.049 271.519,307.603 271.459,305.94C271.384,304.324 270.034,302.999 268.386,302.922C268.335,302.92 268.284,302.919 268.233,302.919C267.519,302.919 266.824,303.148 266.25,303.572C266.187,303.654 266.105,303.72 266.013,303.766C265.988,303.788 265.963,303.81 265.939,303.833C265.316,304.417 264.962,305.233 264.962,306.087C264.962,306.119 264.962,306.153 264.961,306.187C264.96,306.251 264.959,306.324 264.962,306.367C264.964,306.386 264.965,306.405 264.965,306.423L264.972,317.09L264.974,319.648L264.974,319.65L264.976,323.008C264.976,323.008 264.976,323.008 264.976,323.008C264.976,323.053 265.013,323.09 265.058,323.09ZM239.158,309.238C239.654,309.298 240.032,309.723 240.032,310.222L240.032,323.008C240.032,323.053 240.069,323.09 240.114,323.09L242.723,323.09C242.767,323.09 242.804,323.053 242.805,323.008L242.813,310.857L242.813,310.851L242.816,306.423C242.816,306.404 242.816,306.386 242.818,306.367C242.822,306.323 242.82,306.25 242.82,306.186C242.82,306.152 242.819,306.118 242.819,306.087C242.818,305.233 242.464,304.417 241.842,303.833C241.818,303.81 241.792,303.787 241.768,303.766C241.675,303.72 241.594,303.654 241.53,303.572C240.956,303.148 240.261,302.919 239.548,302.919C239.497,302.919 239.446,302.92 239.395,302.922C237.747,302.999 236.397,304.324 236.321,305.94C236.262,307.603 237.506,309.049 239.158,309.238ZM263.615,317.77L244.165,317.77L244.165,318.971L263.616,318.971L263.615,317.77ZM263.611,311.385C261.26,310.718 258.847,310.293 256.41,310.117C256.398,310.118 256.386,310.12 256.374,310.12C256.331,310.12 256.287,310.115 256.245,310.107C252.177,309.833 248.092,310.261 244.17,311.372L244.166,316.412L263.614,316.412L263.611,311.385ZM264.16,296.923L243.62,296.923C243.137,296.927 242.743,297.327 242.745,297.81L242.745,302.82C242.757,302.83 242.768,302.84 242.779,302.851C243.671,303.69 244.177,304.862 244.176,306.087L244.177,306.168C244.178,306.254 244.18,306.351 244.173,306.449L244.171,309.964C246.107,309.437 248.083,309.069 250.079,308.863L248.828,305.418C248.801,305.343 248.787,305.265 248.787,305.186C248.787,304.813 249.094,304.507 249.466,304.507C249.751,304.507 250.007,304.686 250.104,304.954L251.481,308.745C252.972,308.649 254.467,308.643 255.958,308.727L257.7,304.986C257.813,304.751 258.051,304.601 258.311,304.601C258.684,304.601 258.99,304.908 258.99,305.28C258.99,305.376 258.97,305.471 258.93,305.558L257.403,308.839C259.501,309.042 261.577,309.422 263.61,309.976L263.608,306.448C263.601,306.35 263.603,306.254 263.604,306.168L263.605,306.086C263.604,304.862 264.11,303.69 265.002,302.85C265.013,302.84 265.024,302.83 265.036,302.82L265.035,297.81C265.038,297.327 264.643,296.927 264.16,296.923ZM262.186,288.547L260.327,288.547C260.526,288.873 260.876,289.077 261.257,289.092C261.637,289.077 261.987,288.873 262.186,288.547ZM266.023,287.189L266.023,286.754C266.02,284.218 263.935,282.133 261.399,282.13L261.31,282.13L261.283,282.13L261.283,282.131L261.257,282.131L261.23,282.131L261.23,282.13L261.203,282.13L261.114,282.13C258.578,282.133 256.493,284.218 256.49,286.754L256.49,287.189L266.023,287.189Z" style="fill-rule:nonzero;"/>
        <path d="M260.399,280.515C260.534,278.82 261.023,277.167 261.858,275.682C262.575,274.408 263.534,273.268 264.681,272.358C265.607,271.623 266.654,271.039 267.77,270.645C268.674,270.325 269.623,270.133 270.581,270.073C271.412,270.021 272.249,270.068 273.068,270.214C275.289,270.61 277.337,271.743 278.897,273.367C279.763,274.268 280.477,275.315 281.006,276.447C281.468,277.435 281.789,278.489 281.96,279.566C282.057,280.179 282.103,280.798 282.108,281.418L282.108,322.89L283.941,322.89C284.423,322.89 284.82,323.287 284.82,323.769C284.82,324.251 284.423,324.647 283.941,324.647L277.81,324.647C277.328,324.647 276.931,324.251 276.931,323.769C276.931,323.287 277.328,322.89 277.81,322.89L280.351,322.89L280.351,281.47C280.287,280.233 280.023,279.009 279.554,277.861C278.679,275.715 277.096,273.841 275.042,272.744C274.531,272.472 273.993,272.249 273.438,272.084C272.822,271.902 272.186,271.792 271.545,271.761C270.78,271.724 270.012,271.801 269.269,271.984C268.286,272.226 267.355,272.652 266.51,273.205C266.063,273.498 265.635,273.822 265.243,274.184C264.524,274.848 263.912,275.628 263.403,276.462C263.001,277.121 262.324,278.248 262.036,280.599L262.038,280.603C262.055,280.604 262.068,280.606 262.078,280.608C262.087,280.609 262.095,280.611 262.103,280.614C265.205,280.972 267.577,283.628 267.581,286.754L267.581,287.868C267.581,288.35 267.184,288.747 266.702,288.747L263.8,288.747C263.44,289.829 262.455,290.617 261.304,290.649C261.297,290.65 261.29,290.65 261.283,290.65L261.23,290.65C261.224,290.65 261.217,290.65 261.211,290.649C260.059,290.618 259.074,289.83 258.713,288.747L255.811,288.747C255.329,288.747 254.932,288.35 254.932,287.868C254.932,287.868 254.932,286.754 254.932,286.754C254.936,283.634 257.298,280.983 260.391,280.616L260.399,280.515ZM241.188,301.645L241.188,297.81C241.186,296.473 242.283,295.371 243.62,295.366C243.62,295.366 243.62,295.366 243.62,295.366C243.62,295.366 264.16,295.366 264.161,295.366C265.498,295.371 266.595,296.473 266.593,297.81L266.593,301.645C267.189,301.432 267.823,301.337 268.458,301.366C270.901,301.479 272.902,303.458 273.015,305.868C273.122,308.161 271.525,310.193 269.306,310.698L269.306,323.008C269.303,323.2 269.272,323.389 269.205,323.569C268.97,324.205 268.346,324.647 267.666,324.647C266.796,324.647 265.925,324.647 265.055,324.647C264.461,324.647 263.89,324.294 263.611,323.773C263.485,323.539 263.421,323.275 263.418,323.009L263.417,320.528L244.364,320.528L244.362,323.012C244.357,323.203 244.327,323.391 244.261,323.571C244.029,324.201 243.396,324.647 242.723,324.647C241.853,324.647 240.983,324.647 240.114,324.647C239.463,324.647 238.86,324.24 238.605,323.643C238.519,323.441 238.478,323.227 238.475,323.008L238.475,310.698C236.255,310.193 234.659,308.161 234.766,305.868C234.879,303.457 236.879,301.479 239.323,301.366C239.958,301.338 240.591,301.433 241.188,301.645ZM281.908,323.29C281.798,323.29 281.708,323.2 281.708,323.09C281.708,323.09 281.708,281.418 281.708,281.422C281.705,281.218 281.7,281.014 281.689,280.81C281.672,280.487 281.641,280.165 281.597,279.844C281.437,278.693 281.1,277.566 280.597,276.518C280.13,275.542 279.52,274.635 278.789,273.836C277.84,272.799 276.688,271.947 275.408,271.362C274.843,271.103 274.254,270.897 273.65,270.747C272.883,270.556 272.093,270.458 271.302,270.452C270.241,270.445 269.179,270.607 268.169,270.932C267.028,271.3 265.956,271.872 265.011,272.608C263.266,273.964 261.97,275.858 261.3,277.96C261.094,278.607 260.947,279.272 260.859,279.945C260.833,280.145 260.813,280.345 260.798,280.546C260.793,280.611 260.788,280.677 260.784,280.742C260.785,280.762 260.786,280.814 260.78,280.839C260.76,280.924 260.687,280.986 260.6,280.992C260.572,280.994 260.538,280.998 260.522,280.999C260.509,281.004 260.496,281.006 260.482,281.008C257.567,281.332 255.336,283.822 255.332,286.754L255.332,287.868C255.332,288.13 255.548,288.347 255.811,288.347L258.861,288.347C258.951,288.347 259.03,288.407 259.054,288.494C259.326,289.487 260.201,290.227 261.234,290.25L261.243,290.25L261.268,290.25C261.272,290.25 261.275,290.25 261.279,290.25C262.312,290.227 263.187,289.487 263.459,288.494C263.483,288.407 263.562,288.347 263.652,288.347L266.702,288.347C266.965,288.347 267.181,288.13 267.181,287.868C267.181,287.868 267.181,286.754 267.181,286.754C267.177,283.822 264.946,281.332 262.031,281.008C262.018,281.006 262.005,281.004 261.993,281C261.976,280.999 261.944,280.996 261.918,280.995C261.862,280.992 261.811,280.967 261.775,280.925L261.769,280.917C261.689,280.816 261.622,280.688 261.638,280.561C261.936,278.112 262.643,276.94 263.062,276.254C263.59,275.388 264.226,274.579 264.972,273.891C265.38,273.513 265.826,273.175 266.291,272.871C267.174,272.293 268.147,271.848 269.173,271.595C269.953,271.403 270.761,271.323 271.564,271.361C272.237,271.394 272.905,271.509 273.551,271.701C274.133,271.873 274.695,272.106 275.23,272.392C277.366,273.532 279.014,275.479 279.925,277.71C280.411,278.901 280.685,280.17 280.75,281.454C280.751,281.458 280.751,281.461 280.751,281.464L280.751,323.09C280.751,323.2 280.661,323.29 280.551,323.29L277.81,323.29C277.547,323.29 277.331,323.506 277.331,323.769C277.331,324.031 277.547,324.247 277.81,324.247L283.941,324.247C284.204,324.247 284.42,324.031 284.42,323.769C284.42,323.506 284.204,323.29 283.941,323.29L281.908,323.29ZM263.617,320.128C263.727,320.128 263.817,320.218 263.817,320.328C263.817,320.328 263.818,323.009 263.818,323.006C263.821,323.152 263.844,323.295 263.895,323.432C264.075,323.918 264.545,324.24 265.058,324.247C265.058,324.247 267.666,324.247 267.666,324.247C268.346,324.246 268.905,323.687 268.906,323.008L268.906,310.536C268.906,310.44 268.974,310.357 269.068,310.339C271.178,309.935 272.715,308.038 272.615,305.886C272.512,303.679 270.677,301.87 268.439,301.766C267.765,301.735 267.092,301.857 266.471,302.121C266.409,302.148 266.338,302.141 266.282,302.104C266.226,302.067 266.193,302.005 266.193,301.937C266.193,301.937 266.193,297.81 266.193,297.81C266.194,296.692 265.277,295.77 264.16,295.766C264.16,295.766 243.62,295.766 243.621,295.766C242.503,295.77 241.586,296.692 241.588,297.81L241.588,301.938C241.588,302.005 241.554,302.067 241.498,302.104C241.442,302.141 241.371,302.148 241.309,302.122C240.688,301.857 240.016,301.735 239.342,301.766C237.103,301.87 235.269,303.679 235.165,305.886C235.065,308.038 236.602,309.935 238.712,310.339C238.807,310.357 238.875,310.44 238.875,310.536C238.875,310.536 238.875,323.008 238.875,323.008C238.875,323.687 239.434,324.246 240.114,324.247L242.723,324.247L242.753,324.247C243.256,324.226 243.71,323.906 243.886,323.432C243.936,323.295 243.96,323.152 243.962,323.009L243.964,320.328C243.964,320.218 244.053,320.128 244.164,320.128L263.617,320.128ZM265.058,323.29L267.667,323.29C267.821,323.29 267.948,323.163 267.948,323.008C267.948,323.008 267.948,310.222 267.948,310.222C267.949,309.824 268.25,309.484 268.646,309.437C270.401,309.236 271.722,307.699 271.659,305.933C271.579,304.214 270.146,302.804 268.395,302.722C268.341,302.72 268.287,302.719 268.233,302.719C267.476,302.719 266.74,302.962 266.131,303.411C266.117,303.422 266.103,303.435 266.092,303.449C266.047,303.507 265.99,303.554 265.924,303.586C265.907,303.594 265.892,303.605 265.878,303.618C265.852,303.642 265.826,303.664 265.8,303.688C265.139,304.309 264.762,305.178 264.762,306.087C264.762,306.117 264.762,306.149 264.761,306.182C264.761,306.183 264.761,306.184 264.761,306.185C264.76,306.256 264.759,306.336 264.763,306.385C264.764,306.397 264.765,306.41 264.765,306.423C264.765,306.423 264.772,317.091 264.772,317.091C264.772,317.091 264.774,319.648 264.774,319.648L264.774,319.65L264.776,323.008C264.776,323.007 264.776,323.008 264.776,323.008C264.776,323.163 264.903,323.29 265.058,323.29ZM239.135,309.437C239.531,309.484 239.832,309.824 239.832,310.222C239.832,310.222 239.832,323.008 239.832,323.008C239.832,323.163 239.959,323.29 240.114,323.29L242.723,323.29C242.877,323.29 243.004,323.163 243.005,323.009C243.005,323.008 243.013,310.857 243.013,310.857L243.013,310.851L243.016,306.423C243.016,306.41 243.016,306.397 243.017,306.384C243.021,306.335 243.021,306.255 243.02,306.184C243.02,306.152 243.019,306.118 243.019,306.087C243.018,305.178 242.641,304.309 241.979,303.687C241.953,303.663 241.927,303.639 241.901,303.616C241.887,303.604 241.872,303.594 241.856,303.586C241.79,303.554 241.733,303.507 241.688,303.449C241.677,303.435 241.664,303.422 241.649,303.411C241.041,302.962 240.304,302.719 239.548,302.719C239.494,302.719 239.44,302.72 239.385,302.722C237.634,302.804 236.202,304.214 236.121,305.931C236.058,307.699 237.38,309.236 239.136,309.437L239.135,309.437ZM267.548,322.89L267.548,310.222C267.549,309.622 268.002,309.111 268.599,309.04C270.149,308.862 271.315,307.506 271.259,305.95C271.189,304.435 269.922,303.194 268.376,303.122C268.328,303.12 268.28,303.119 268.233,303.119C267.57,303.119 266.925,303.329 266.389,303.718C266.316,303.806 266.227,303.878 266.127,303.932C266.11,303.947 266.093,303.962 266.076,303.978C265.493,304.525 265.162,305.289 265.162,306.087C265.162,306.121 265.162,306.156 265.161,306.19C265.16,306.247 265.158,306.312 265.162,306.35C265.162,306.351 265.162,306.351 265.162,306.352C265.164,306.375 265.165,306.399 265.165,306.423L265.172,317.09L265.174,319.648L265.174,319.65L265.176,322.89L267.548,322.89ZM241.391,303.718C240.855,303.329 240.21,303.119 239.548,303.119C239.5,303.119 239.452,303.12 239.404,303.122C237.859,303.194 236.592,304.435 236.521,305.947C236.465,307.506 237.632,308.862 239.181,309.04L239.182,309.04C239.778,309.111 240.232,309.622 240.232,310.222L240.232,322.89L242.605,322.89L242.613,310.857C242.613,309.379 242.614,307.901 242.616,306.423C242.616,306.374 242.621,306.325 242.621,306.276C242.621,306.064 242.617,305.853 242.584,305.643C242.482,304.99 242.155,304.393 241.67,303.946L241.653,303.931C241.553,303.878 241.464,303.805 241.391,303.718ZM263.615,317.57C263.726,317.57 263.815,317.659 263.815,317.769L263.816,318.971C263.816,319.024 263.795,319.075 263.757,319.112C263.72,319.15 263.669,319.171 263.616,319.171L244.165,319.171C244.112,319.171 244.061,319.15 244.023,319.112C243.986,319.075 243.965,319.024 243.965,318.971L243.965,317.769C243.966,317.659 244.055,317.57 244.165,317.57L263.615,317.57ZM244.365,317.97L244.365,318.771L263.416,318.771L263.415,317.97L244.365,317.97ZM253.957,309.827C254.724,309.829 255.491,309.856 256.258,309.907C256.267,309.908 256.276,309.909 256.284,309.911C256.314,309.917 256.344,309.92 256.374,309.92C256.376,309.92 256.378,309.92 256.38,309.92L256.398,309.918L256.424,309.918C258.875,310.095 261.301,310.522 263.665,311.193C263.751,311.217 263.811,311.295 263.811,311.385L263.814,316.412C263.814,316.465 263.793,316.516 263.756,316.554C263.718,316.591 263.667,316.612 263.614,316.612L244.166,316.612C244.113,316.612 244.062,316.591 244.025,316.554C243.987,316.516 243.966,316.465 243.966,316.412L243.97,311.372C243.97,311.283 244.029,311.204 244.115,311.18C247.259,310.289 250.506,309.835 253.765,309.827L253.957,309.827ZM256.22,310.306C252.229,310.038 248.222,310.45 244.37,311.524L244.367,316.212L263.414,316.212L263.411,311.537C261.124,310.898 258.778,310.49 256.41,310.318C256.398,310.319 256.386,310.32 256.373,310.32C256.322,310.32 256.27,310.315 256.22,310.306ZM264.16,296.723L264.162,296.723C264.754,296.728 265.238,297.218 265.235,297.81L265.236,302.82C265.236,302.876 265.212,302.929 265.171,302.967C265.16,302.977 265.149,302.986 265.139,302.996C264.287,303.797 263.804,304.917 263.805,306.086L263.804,306.171C263.803,306.252 263.801,306.343 263.807,306.435C263.808,306.44 263.808,306.444 263.808,306.448L263.81,309.976C263.81,310.038 263.781,310.097 263.732,310.135C263.682,310.172 263.618,310.185 263.558,310.169C261.536,309.618 259.47,309.24 257.384,309.038C257.319,309.032 257.262,308.994 257.23,308.938C257.197,308.882 257.194,308.813 257.222,308.754C257.222,308.754 258.749,305.474 258.748,305.476C258.776,305.415 258.79,305.348 258.79,305.28C258.79,305.018 258.574,304.801 258.311,304.801C258.128,304.801 257.96,304.907 257.881,305.07L256.139,308.812C256.104,308.886 256.028,308.932 255.946,308.927C254.463,308.843 252.976,308.849 251.494,308.945C251.405,308.951 251.323,308.897 251.293,308.813C251.293,308.813 249.916,305.022 249.916,305.022C249.847,304.833 249.667,304.707 249.466,304.707C249.204,304.707 248.987,304.923 248.987,305.186C248.987,305.242 248.997,305.297 249.016,305.349L250.267,308.795C250.288,308.853 250.282,308.917 250.249,308.969C250.216,309.021 250.161,309.056 250.1,309.062C248.115,309.267 246.149,309.633 244.223,310.157C244.163,310.173 244.099,310.16 244.049,310.122C244,310.085 243.971,310.026 243.971,309.963L243.973,306.449C243.973,306.444 243.973,306.44 243.973,306.436C243.98,306.343 243.978,306.252 243.977,306.171L243.976,306.087C243.977,304.917 243.494,303.798 242.643,302.997C242.632,302.987 242.621,302.977 242.61,302.967C242.569,302.929 242.545,302.876 242.545,302.82C242.545,302.82 242.545,297.81 242.545,297.811C242.542,297.218 243.026,296.728 243.619,296.723L243.62,296.723L264.16,296.723ZM243.622,297.123C243.537,297.125 243.453,297.14 243.374,297.172C243.117,297.277 242.945,297.533 242.945,297.81L242.945,302.733C243.859,303.608 244.377,304.82 244.376,306.085C244.376,306.085 244.377,306.166 244.377,306.166C244.378,306.255 244.379,306.353 244.373,306.454L244.371,309.703C246.154,309.231 247.971,308.893 249.804,308.691L248.64,305.486C248.599,305.368 248.58,305.244 248.59,305.119C248.599,305.003 248.631,304.89 248.684,304.787C248.736,304.687 248.807,304.596 248.892,304.522C248.973,304.453 249.066,304.398 249.165,304.361C249.247,304.33 249.334,304.313 249.421,304.308C249.805,304.289 250.158,304.528 250.292,304.886L251.618,308.536C253.022,308.451 254.429,308.446 255.834,308.52L257.52,304.899C257.58,304.778 257.663,304.672 257.769,304.589C257.865,304.513 257.977,304.458 258.096,304.428C258.195,304.403 258.299,304.396 258.401,304.406C258.867,304.454 259.224,304.882 259.187,305.35C259.179,305.451 259.154,305.551 259.112,305.643L257.703,308.668C259.63,308.869 261.538,309.219 263.41,309.715L263.408,306.454C263.402,306.353 263.403,306.254 263.404,306.167C263.404,306.167 263.405,306.084 263.405,306.086C263.404,304.82 263.922,303.607 264.836,302.732L264.835,297.809C264.835,297.729 264.822,297.651 264.795,297.575C264.7,297.314 264.452,297.136 264.176,297.123L243.622,297.123ZM262.186,288.347C262.258,288.347 262.325,288.386 262.36,288.449C262.396,288.512 262.394,288.589 262.357,288.651C262.123,289.034 261.712,289.275 261.264,289.292C261.259,289.292 261.254,289.292 261.249,289.292C260.801,289.275 260.39,289.034 260.157,288.651C260.119,288.589 260.117,288.512 260.153,288.449C260.188,288.386 260.255,288.347 260.327,288.347L262.186,288.347ZM261.716,288.747L260.797,288.747C260.933,288.833 261.091,288.884 261.257,288.892C261.422,288.884 261.58,288.833 261.716,288.747ZM261.27,281.931C261.274,281.93 261.278,281.93 261.282,281.93L261.309,281.93L261.399,281.93C264.044,281.933 266.22,284.109 266.223,286.754L266.223,287.189C266.223,287.3 266.133,287.389 266.023,287.389L256.49,287.389C256.38,287.389 256.29,287.3 256.29,287.189C256.29,287.189 256.29,286.754 256.29,286.754C256.293,284.109 258.469,281.933 261.114,281.93L261.203,281.93L261.231,281.93C261.235,281.93 261.239,281.93 261.243,281.931L261.259,281.931L261.27,281.931ZM261.3,282.33C261.29,282.331 261.29,282.331 261.28,282.331L261.233,282.331L261.213,282.33L261.203,282.33C261.203,282.33 261.114,282.33 261.114,282.33C258.688,282.333 256.693,284.328 256.69,286.754L256.69,286.989L265.823,286.989L265.823,286.754C265.82,284.328 263.825,282.333 261.399,282.33C261.399,282.33 261.31,282.33 261.311,282.33L261.3,282.33ZM260.618,280.932L260.618,280.932ZM260.619,280.931C260.654,280.887 260.662,280.84 260.66,280.797C260.663,280.847 260.647,280.894 260.619,280.931ZM261.891,280.926C261.865,280.89 261.851,280.845 261.853,280.797C261.851,280.84 261.859,280.884 261.891,280.926Z"/>
    </g>
</svg>
