<?xml version="1.0" encoding="UTF-8" standalone="no"?>
<!DOCTYPE svg PUBLIC "-//W3C//DTD SVG 1.1//EN" "http://www.w3.org/Graphics/SVG/1.1/DTD/svg11.dtd">
<svg width="100%" height="100%" viewBox="0 0 511 511" version="1.1" xmlns="http://www.w3.org/2000/svg" xmlns:xlink="http://www.w3.org/1999/xlink" xml:space="preserve" xmlns:serif="http://www.serif.com/" style="fill-rule:evenodd;clip-rule:evenodd;stroke-linejoin:round;stroke-miterlimit:2;">
    <path d="M142.633,0.824C146.705,-0.062 150.847,-0.627 155.031,-0.866L155.038,-0.866L155.043,-0.867C155.539,-0.895 156.035,-0.919 156.532,-0.938L156.567,-0.939L156.623,-0.941L156.82,-0.949L157.014,-0.955L157.079,-0.957L157.122,-0.959L157.223,-0.962L157.558,-0.971L157.591,-0.972L157.599,-0.972C157.758,-0.976 157.918,-0.98 158.078,-0.983L158.104,-0.983L158.185,-0.985L158.435,-0.989L158.548,-0.99L158.618,-0.992L158.7,-0.992L158.839,-0.994L159.037,-0.995L159.133,-0.996L159.179,-0.997C159.335,-0.998 159.492,-0.998 159.648,-0.998L353.223,-0.998L353.628,-0.997L353.692,-0.997L353.738,-0.996L353.835,-0.995L354.032,-0.994L354.171,-0.992L354.253,-0.992L354.323,-0.99L354.436,-0.989L354.686,-0.985L354.767,-0.983L354.793,-0.983C354.953,-0.98 355.113,-0.976 355.273,-0.972L355.648,-0.962L355.75,-0.959L355.792,-0.957L355.858,-0.955L356.051,-0.949L356.248,-0.941L356.304,-0.939L356.34,-0.938C356.836,-0.919 357.332,-0.895 357.828,-0.867L357.84,-0.866C362.481,-0.601 367.072,0.065 371.573,1.126C387.323,2.975 402.087,10.071 413.413,21.396C426.701,34.685 434.167,52.707 434.167,71.5L434.167,439.5C434.167,458.293 426.701,476.315 413.413,489.604C400.125,502.892 382.102,510.357 363.309,510.357L147.691,510.357C128.898,510.357 110.875,502.892 97.587,489.604C84.299,476.315 76.833,458.293 76.833,439.5L76.833,71.5C76.833,52.707 84.299,34.685 97.587,21.396C109.678,9.305 125.689,2.035 142.633,0.824ZM353.223,38.916L159.648,38.916L159.293,38.918L159.197,38.919L158.87,38.924L158.734,38.927L158.55,38.931C137.048,39.515 119.734,57.186 119.734,78.826L119.734,89.641L119.738,146.085L119.738,430.058C119.738,452.065 137.64,469.967 159.648,469.968L353.223,469.968C375.231,469.967 393.133,452.065 393.133,430.058L393.133,146.085L393.137,89.641L393.137,78.826C393.137,57.186 375.823,39.515 354.321,38.931L354.138,38.927L354.002,38.924L353.674,38.919L353.578,38.918L353.223,38.916ZM256.178,439.155C245.275,439.018 236.479,430.139 236.479,419.204C236.479,408.179 245.414,399.247 256.436,399.247C267.458,399.247 276.393,408.179 276.393,419.204C276.393,430.139 267.596,439.018 256.694,439.155L256.436,439.157L256.178,439.155ZM276.393,109.879L236.479,109.879C225.457,109.879 216.522,100.947 216.522,89.926C216.522,78.904 225.457,69.969 236.479,69.969L276.393,69.969C287.415,69.969 296.35,78.905 296.35,89.926C296.35,100.947 287.415,109.878 276.393,109.879Z" style="fill:rgb(51,166,126);fill-rule:nonzero;"/>
</svg>
